REM MD5 e8cd9bdef791c70051806df019c81558
FILE "Euro Demo 45 (Europe).bin" BINARY
  TRACK 01 MODE2/2352
    INDEX 01 00:00:00
  TRACK 02 AUDIO
    INDEX 00 35:40:29
    INDEX 01 35:42:29
  TRACK 03 AUDIO
    INDEX 00 36:39:09
    INDEX 01 36:41:09
  TRACK 04 AUDIO
    INDEX 00 39:07:10
    INDEX 01 39:09:10
  TRACK 05 AUDIO
    INDEX 00 42:14:43
    INDEX 01 42:16:43
REM LEADOUT 45:18:00
